<?xml version="1.0" encoding="utf-8"?>
<!-- Generator: Adobe Illustrator 19.1.0, SVG Export Plug-In . SVG Version: 6.00 Build 0)  -->
<svg version="1.1" id="Layer_1" xmlns="http://www.w3.org/2000/svg" xmlns:xlink="http://www.w3.org/1999/xlink" x="0px" y="0px"
	 viewBox="0 0 125.5 32.2" style="enable-background:new 0 0 125.5 32.2;" xml:space="preserve">
<style type="text/css">
	.st0{fill:#8F3200;}
	.st1{fill:#8C6239;}
	.st2{fill:none;stroke:#603813;stroke-miterlimit:10;}
	.st3{fill:none;stroke:#42210B;stroke-miterlimit:10;}
	.st4{fill:none;stroke:#C69C6D;stroke-miterlimit:10;}
	.st5{fill:none;stroke:#8C6239;stroke-miterlimit:10;}
	.st6{fill:#C69C6D;stroke:#603813;stroke-miterlimit:10;}
</style>
<g>
	<g>
		<path class="st0" d="M21.8,0.8c-2.1,1.8-3.9,3.8-5.4,6l0,0c-0.4-0.4-0.8-0.7-1.3-1c-3-2-6.5-2-7.8,0.1s0,5.2,3.1,7.2
			c0.7,0.5,1.4,0.8,2.1,1.1l0,0c-1,2.3-1.7,4.5-2.2,6.6l0,0c-4.4-3-9.3-2.4-9.3-2.4l0,0c-1.3-7,0.3-13.1,4.6-15.5
			c2.9-1.7,6.7-1.4,10.5,0.4l0,0C17.7,2.2,19.7,1.4,21.8,0.8z"/>
		<path class="st1" d="M14.8,12.1c3.5-1.3,7.2-2.4,10-2.7c-1.7,0.6-3.3,1.4-4.7,1.9l0,0c2.7,6.5-7.5,7.9-3.3,15.9l0,0
			c-0.4-0.9-1.6-3-4.9-5.4l0,0c0.5-2.3,1.1-4.8,2.1-7.3l0,0c1.8,0.2,3.7-0.4,4.5-1.6c0.3-0.4,0-0.7,0.8-1.6l0,0
			c-1.5,1-3.3,1.2-4.6,1.7L14.8,12.1z"/>
		<circle cx="10.4" cy="7" r="2"/>
		<path class="st2" d="M8.7,31.4c0,0,0.5-20.1,13.2-30.6"/>
		<path class="st2" d="M26.4,8.8c-13.7,4.6-25.3,9.4-25.3,9.4S18.9,9.9,26.4,8.8"/>
		<path class="st3" d="M21.8,0.8C9,4.2,1.1,18.2,1.1,18.2s5.1-0.4,10,2.9s5.6,6,5.6,6"/>
		<path class="st4" d="M1,18.3c-1.3-7,0.2-13,4.5-15.5c2.9-1.7,6.6-1.4,10.4,0.4"/>
		<path class="st4" d="M10.3,13c3,2,6.5,2,7.8-0.1c0.4-0.6,0.6-1.4,0.5-2.2c-0.1-0.6-0.2-1.2-0.5-1.7c-0.4-0.8-1-1.6-1.7-2.3
			c-0.4-0.4-0.8-0.7-1.3-1c-3-2-6.5-2-7.8,0.1S7.3,11,10.3,13z"/>
		<path class="st4" d="M16.6,26.7c-4.1-7.9,5.8-9,3.2-15.6"/>
		<circle class="st4" cx="10.4" cy="7" r="2"/>
		<path class="st4" d="M10.9,25.1"/>
		<path class="st4" d="M16.2,8.5"/>
		<path class="st3" d="M16.8,27.1c0,0-0.7-2.7-5.6-6s-10-2.9-10-2.9S9,4.2,21.8,0.8"/>
		<path class="st5" d="M1,18.3c-1.3-7,0.2-13,4.5-15.5c2.9-1.7,6.6-1.4,10.4,0.4"/>
		<path class="st2" d="M16.6,26.7c-4.1-7.9,5.8-9,3.2-15.6"/>
		<circle class="st4" cx="10.4" cy="7" r="2"/>
		<path class="st4" d="M10.9,25.1"/>
		<path class="st4" d="M16.2,8.5"/>
	</g>
	<g>
		<path class="st6" d="M40.7,15.3L40.7,15.3l5.6-14.8h1.8l-6.5,17h-1.8l-6.5-17h1.9L40.7,15.3z"/>
		<path class="st6" d="M57,16h9.1v1.5H55.3v-17h10.5V2H57v5.8h8.2v1.5H57V16z"/>
		<path class="st6" d="M76,16h9.1v1.5H74.3v-17h10.5V2H76v5.8h8.2v1.5H76V16z"/>
		<path class="st6" d="M95,17.5h-1.7v-17h5c0.8,0,1.6,0.1,2.3,0.2c0.7,0.2,1.3,0.4,1.8,0.8c0.5,0.4,0.9,0.8,1.2,1.4
			c0.3,0.6,0.4,1.3,0.4,2.1c0,0.6-0.1,1.2-0.3,1.7c-0.2,0.5-0.5,1-0.9,1.3c-0.4,0.4-0.8,0.7-1.4,0.9c-0.5,0.2-1.1,0.4-1.7,0.4l5,8.1
			h-2.1l-4.7-7.9H95V17.5z M95,8.1h3c1.4,0,2.5-0.3,3.2-0.8c0.8-0.5,1.1-1.3,1.1-2.3c0-0.6-0.1-1-0.3-1.4c-0.2-0.4-0.5-0.7-0.9-0.9
			c-0.4-0.2-0.8-0.4-1.3-0.5C99.3,2,98.7,2,98.1,2H95V8.1z"/>
		<path class="st6" d="M118.2,17.5h-1.7v-7.3l-6.4-9.7h2.2l5.1,8.2l5.2-8.2h2l-6.4,9.7V17.5z"/>
	</g>
	<g>
		<path class="st0" d="M36.9,27.1h1.4c0.3,0,0.5,0,0.7,0.1c0.2,0.1,0.4,0.1,0.5,0.2c0.1,0.1,0.3,0.2,0.3,0.4C40,28,40,28.2,40,28.4
			s0,0.4-0.1,0.6c-0.1,0.2-0.2,0.3-0.3,0.4c-0.1,0.1-0.3,0.2-0.5,0.2s-0.4,0.1-0.7,0.1h-0.9v2.3h-0.5V27.1z M37.4,29.3h0.9
			c0.4,0,0.7-0.1,0.9-0.2s0.3-0.4,0.3-0.7c0-0.3-0.1-0.5-0.3-0.7c-0.2-0.1-0.5-0.2-0.9-0.2h-0.9V29.3z"/>
		<path class="st0" d="M42.9,31.6h2.7v0.4h-3.2v-5h3.1v0.4h-2.6v1.7h2.4v0.4h-2.4V31.6z"/>
		<path class="st0" d="M48.5,32.1h-0.5v-5h1.5c0.2,0,0.5,0,0.7,0.1s0.4,0.1,0.5,0.2c0.2,0.1,0.3,0.2,0.4,0.4s0.1,0.4,0.1,0.6
			c0,0.2,0,0.3-0.1,0.5s-0.2,0.3-0.3,0.4c-0.1,0.1-0.2,0.2-0.4,0.3c-0.2,0.1-0.3,0.1-0.5,0.1l1.4,2.4h-0.6l-1.4-2.3h-0.8V32.1z
			 M48.5,29.3h0.9c0.4,0,0.7-0.1,0.9-0.2c0.2-0.1,0.3-0.4,0.3-0.7c0-0.2,0-0.3-0.1-0.4s-0.1-0.2-0.3-0.3c-0.1-0.1-0.2-0.1-0.4-0.2
			c-0.2,0-0.3,0-0.5,0h-0.9V29.3z"/>
		<path class="st0" d="M54,32.1h-0.5v-5h3v0.4H54v1.7h2.3v0.4H54V32.1z"/>
		<path class="st0" d="M63.8,29.6c0,0.4-0.1,0.7-0.2,1c-0.1,0.3-0.3,0.6-0.5,0.8c-0.2,0.2-0.5,0.4-0.8,0.5c-0.3,0.1-0.7,0.2-1,0.2
			s-0.7-0.1-1-0.2c-0.3-0.1-0.6-0.3-0.8-0.5c-0.2-0.2-0.4-0.5-0.5-0.8c-0.1-0.3-0.2-0.7-0.2-1s0.1-0.7,0.2-1
			c0.1-0.3,0.3-0.6,0.5-0.8c0.2-0.2,0.5-0.4,0.8-0.5c0.3-0.1,0.7-0.2,1-0.2s0.7,0.1,1,0.2s0.6,0.3,0.8,0.5c0.2,0.2,0.4,0.5,0.5,0.8
			C63.7,28.9,63.8,29.2,63.8,29.6z M63.2,29.6c0-0.3,0-0.6-0.1-0.8c-0.1-0.3-0.2-0.5-0.4-0.7s-0.4-0.4-0.6-0.5s-0.5-0.2-0.9-0.2
			s-0.6,0.1-0.9,0.2c-0.3,0.1-0.5,0.3-0.6,0.5c-0.2,0.2-0.3,0.4-0.4,0.7s-0.1,0.5-0.1,0.8c0,0.3,0,0.6,0.1,0.8s0.2,0.5,0.4,0.7
			c0.2,0.2,0.4,0.4,0.6,0.5c0.3,0.1,0.5,0.2,0.9,0.2s0.6-0.1,0.9-0.2c0.3-0.1,0.5-0.3,0.6-0.5c0.2-0.2,0.3-0.4,0.4-0.7
			C63.2,30.1,63.2,29.9,63.2,29.6z"/>
		<path class="st0" d="M66.7,32.1h-0.5v-5h1.5c0.2,0,0.5,0,0.7,0.1s0.4,0.1,0.5,0.2c0.2,0.1,0.3,0.2,0.4,0.4s0.1,0.4,0.1,0.6
			c0,0.2,0,0.3-0.1,0.5c-0.1,0.1-0.2,0.3-0.3,0.4c-0.1,0.1-0.2,0.2-0.4,0.3s-0.3,0.1-0.5,0.1l1.4,2.4h-0.6l-1.4-2.3h-0.8V32.1z
			 M66.7,29.3h0.9c0.4,0,0.7-0.1,0.9-0.2c0.2-0.1,0.3-0.4,0.3-0.7c0-0.2,0-0.3-0.1-0.4s-0.1-0.2-0.3-0.3c-0.1-0.1-0.2-0.1-0.4-0.2
			s-0.3,0-0.5,0h-0.9V29.3z"/>
		<path class="st0" d="M74.3,31.2L74.3,31.2l1.7-4.1h0.8v5h-0.5v-4.3h0l-1.8,4.3h-0.3l-1.8-4.3h0v4.3h-0.5v-5h0.8L74.3,31.2z"/>
		<path class="st0" d="M84,32.1h-0.5v-4.5h-1.7v-0.4h3.8v0.4H84V32.1z"/>
		<path class="st0" d="M92.5,29.6c0,0.4-0.1,0.7-0.2,1c-0.1,0.3-0.3,0.6-0.5,0.8c-0.2,0.2-0.5,0.4-0.8,0.5c-0.3,0.1-0.7,0.2-1,0.2
			c-0.4,0-0.7-0.1-1-0.2c-0.3-0.1-0.6-0.3-0.8-0.5c-0.2-0.2-0.4-0.5-0.5-0.8s-0.2-0.7-0.2-1s0.1-0.7,0.2-1s0.3-0.6,0.5-0.8
			c0.2-0.2,0.5-0.4,0.8-0.5c0.3-0.1,0.7-0.2,1-0.2c0.4,0,0.7,0.1,1,0.2c0.3,0.1,0.6,0.3,0.8,0.5c0.2,0.2,0.4,0.5,0.5,0.8
			C92.4,28.9,92.5,29.2,92.5,29.6z M91.9,29.6c0-0.3,0-0.6-0.1-0.8c-0.1-0.3-0.2-0.5-0.4-0.7c-0.2-0.2-0.4-0.4-0.6-0.5
			c-0.3-0.1-0.5-0.2-0.9-0.2s-0.6,0.1-0.9,0.2c-0.3,0.1-0.5,0.3-0.6,0.5c-0.2,0.2-0.3,0.4-0.4,0.7c-0.1,0.3-0.1,0.5-0.1,0.8
			c0,0.3,0,0.6,0.1,0.8c0.1,0.3,0.2,0.5,0.4,0.7c0.2,0.2,0.4,0.4,0.6,0.5c0.3,0.1,0.5,0.2,0.9,0.2s0.6-0.1,0.9-0.2
			c0.3-0.1,0.5-0.3,0.6-0.5c0.2-0.2,0.3-0.4,0.4-0.7C91.9,30.1,91.9,29.9,91.9,29.6z"/>
		<path class="st0" d="M98.4,31.3L98.4,31.3l0-4.2H99v5h-0.6l-2.9-4.3h0v4.3h-0.5v-5h0.6L98.4,31.3z"/>
		<path class="st0" d="M102.2,32.1h-0.5v-5h0.5V32.1z"/>
		<path class="st0" d="M108.7,28c-0.2-0.2-0.4-0.3-0.6-0.4c-0.2-0.1-0.5-0.2-0.8-0.2c-0.3,0-0.6,0.1-0.9,0.2
			c-0.3,0.1-0.5,0.3-0.6,0.5c-0.2,0.2-0.3,0.4-0.4,0.7s-0.1,0.5-0.1,0.8c0,0.3,0,0.6,0.1,0.8s0.2,0.5,0.4,0.7
			c0.2,0.2,0.4,0.4,0.6,0.5c0.3,0.1,0.5,0.2,0.9,0.2c0.3,0,0.5,0,0.8-0.1s0.4-0.1,0.6-0.2v-1.5h-1.2v-0.4h1.7v2.2
			c-0.3,0.2-0.6,0.3-0.9,0.4c-0.3,0.1-0.6,0.1-1,0.1c-0.4,0-0.7-0.1-1-0.2c-0.3-0.1-0.6-0.3-0.8-0.5c-0.2-0.2-0.4-0.5-0.5-0.8
			c-0.1-0.3-0.2-0.7-0.2-1s0.1-0.7,0.2-1s0.3-0.6,0.5-0.8c0.2-0.2,0.5-0.4,0.8-0.5c0.3-0.1,0.7-0.2,1-0.2c0.4,0,0.7,0.1,1,0.2
			c0.3,0.1,0.5,0.3,0.8,0.5L108.7,28z"/>
		<path class="st0" d="M111.8,27.1h0.5v2.1h2.7v-2.1h0.5v5H115v-2.3h-2.7v2.3h-0.5V27.1z"/>
		<path class="st0" d="M119.8,32.1h-0.5v-4.5h-1.7v-0.4h3.8v0.4h-1.7V32.1z"/>
	</g>
</g>
</svg>
